# xmcd CD database file
#
# Track frame offsets:
#	182
#	12557
#	27957
#	39295
#	50657
#	62245
#	76220
#	84382
#	93420
#	102407
#
# Disc length: 1497 seconds
#
# Revision: 1
# Processed by: cddbd v1.5.1PL2 Copyright (c) Steve Scherf et al.
# Submitted via: CDex 1.51
#
DISCID=7705d70a
DTITLE=Jim Reeves - Live Cd 2 (Raw Music)
DYEAR=1900
DGENRE=Country
TTITLE0=Your Old Love Letters
TTITLE1=Making Believe
TTITLE2=Am I Losing You
TTITLE3=Just Call Me Lonesome
TTITLE4=If Heartaches Are The Fashion
TTITLE5=How's The World Treating You
TTITLE6=Till The End Of The World
TTITLE7=According To My Heart
TTITLE8=If You Were Only Mine
TTITLE9=He'll Have To Go
EXTD=
EXTT0=
EXTT1=
EXTT2=
EXTT3=
EXTT4=
EXTT5=
EXTT6=
EXTT7=
EXTT8=
EXTT9=
PLAYORDER=
